HIERARCHY
ROOT Hips
{
	OFFSET 0.000000 0.000000 0.000000
	CHANNELS 6 Xposition Yposition Zposition Zrotation Yrotation Xrotation 
	JOINT LHipJoint
	{
		OFFSET 0.000000 0.000000 0.000000
		CHANNELS 3 Zrotation Yrotation Xrotation
		JOINT LeftUpLeg
		{
			OFFSET 1.363060 -1.794630 0.839290
			CHANNELS 3 Zrotation Yrotation Xrotation
			JOINT LeftLeg
			{
				OFFSET 2.448110 -6.726130 0.000000
				CHANNELS 3 Zrotation Yrotation Xrotation
				JOINT LeftFoot
				{
					OFFSET 2.562200 -7.039590 0.000000
					CHANNELS 3 Zrotation Yrotation Xrotation
					JOINT LeftToeBase
					{
						OFFSET 0.157640 -0.433110 2.322550
						CHANNELS 3 Zrotation Yrotation Xrotation
						End Site
						{
							OFFSET 0.000000 0.000000 0.000000
						}
					}
				}
			}
		}
	}
	JOINT RHipJoint
	{
		OFFSET 0.000000 0.000000 0.000000
		CHANNELS 3 Zrotation Yrotation Xrotation
		JOINT RightUpLeg
		{
			OFFSET -1.305520 -1.794630 0.839290
			CHANNELS 3 Zrotation Yrotation Xrotation
			JOINT RightLeg
			{
				OFFSET -2.542530 -6.985550 0.000000
				CHANNELS 3 Zrotation Yrotation Xrotation
				JOINT RightFoot
				{
					OFFSET -2.568260 -7.056230 0.000000
					CHANNELS 3 Zrotation Yrotation Xrotation
					JOINT RightToeBase
					{
						OFFSET -0.164730 -0.452590 2.363150
						CHANNELS 3 Zrotation Yrotation Xrotation
						End Site
						{
							OFFSET 0.000000 0.000000 0.000000
						}
					}
				}
			}
		}
	}
}
MOTION
Frames: 33
Frame Time: 0.008333
1.144537 17.383727 0.832354 -173.655389 -33.842600 -174.149498 -12.380468 3.758314 -1.965886 -1.346748 38.298050 -9.577640 -2.184993 -0.278436 6.190114 3.486556 26.957104 2.481586 5.047100 0.000000 -45.675400 8.457724 -1.325424 8.091211 5.245545 16.687757 -19.422303 4.400649 1.153553 0.187229 2.780405 27.806948 14.915910 9.359500 -0.000000 -80.410800
1.150119 17.379241 0.851991 -173.567165 -33.870521 -174.217745 -12.303325 3.752073 -2.070374 -1.419824 38.287032 -9.532617 -2.188617 -0.268673 6.108263 3.537139 27.190322 2.208408 4.976300 0.000001 -45.100300 8.526462 -1.248748 8.034089 5.154407 16.936496 -19.269010 4.381998 1.160192 0.119283 2.764562 27.232774 14.825691 9.096300 -0.000000 -80.274100
1.154282 17.376576 0.871018 -173.429124 -33.952900 -174.257862 -12.220642 3.738748 -2.182816 -1.480742 38.249681 -9.513095 -2.197049 -0.259034 5.970931 3.577601 27.345444 1.965382 4.900800 0.000000 -44.519500 8.598835 -1.162951 7.977120 5.058129 17.259150 -19.188369 4.358461 1.158439 0.110128 2.745991 26.545818 14.756043 8.805000 -0.000000 -80.033600
1.156638 17.376280 0.888688 -173.258533 -34.080428 -174.259285 -12.135789 3.722439 -2.296625 -1.543598 38.191056 -9.519509 -2.210255 -0.251330 5.763667 3.606421 27.423616 1.778195 4.834400 0.000001 -43.961300 8.672779 -1.072180 7.923578 4.951908 17.631611 -19.188678 4.329774 1.149072 0.156260 2.724980 25.786367 14.712076 8.502899 0.000000 -79.700300
1.156702 17.378692 0.904548 -173.075073 -34.243604 -174.218882 -12.054895 3.707864 -2.404112 -1.621649 38.123090 -9.548910 -2.228115 -0.247416 5.475415 3.622247 27.426744 1.665600 4.787300 0.000000 -43.437600 8.743823 -0.982109 7.877691 4.831337 18.025670 -19.268169 4.296507 1.133683 0.248711 2.702200 24.996378 14.697564 8.205800 0.000001 -79.287700
1.154261 17.383882 0.918284 -172.903982 -34.431737 -174.137234 -11.986390 3.700496 -2.497486 -1.724075 38.060975 -9.593129 -2.250119 -0.248707 5.100143 3.624312 27.361130 1.643794 4.768899 0.000000 -42.991400 8.805762 -0.899331 7.844062 4.691990 18.415277 -19.413040 4.259933 1.114711 0.372666 2.678699 24.212244 14.714958 7.926101 -0.000000 -78.806400
1.149404 17.391460 0.929913 -172.765553 -34.633283 -174.023019 -11.936402 3.704708 -2.573765 -1.853800 38.032726 -9.646192 -2.277893 -0.255392 4.649125 3.610757 27.221381 1.709978 4.775101 -0.000000 -42.605900 8.854375 -0.829273 7.825940 4.533137 18.777862 -19.603973 4.221786 1.094468 0.515289 2.655681 23.465828 14.760506 7.671899 0.000000 -78.276900
1.142401 17.400831 0.939581 -172.675434 -34.837000 -173.884914 -11.909346 3.723198 -2.633583 -2.009687 38.062842 -9.702115 -2.312923 -0.266706 4.142136 3.580766 27.005913 1.855826 4.799800 0.000000 -42.283400 8.886932 -0.775703 7.823628 4.355968 19.096267 -19.817822 4.183806 1.075083 0.664795 2.634255 22.779781 14.826471 7.446601 -0.000000 -77.716100
1.133899 17.411334 0.947539 -172.638803 -35.038270 -173.734153 -11.902913 3.756041 -2.679785 -2.188063 38.162904 -9.757934 -2.355607 -0.281359 3.605605 3.535350 26.721638 2.071522 4.837700 -0.000000 -42.056201 8.905541 -0.740266 7.837407 4.161233 19.367443 -20.030583 4.146803 1.058328 0.802417 2.614640 22.157533 14.907020 7.248400 0.000001 -77.132600
1.124594 17.422212 0.953920 -172.661556 -35.232938 -173.577809 -11.914658 3.802932 -2.714800 -2.387475 38.335533 -9.814958 -2.406289 -0.297250 3.074143 3.476619 26.376937 2.334623 4.878400 0.000000 -41.904300 8.912103 -0.723037 7.864945 3.951009 19.585012 -20.225222 4.111347 1.045100 0.922109 2.597215 21.603604 14.990677 7.074400 0.000000 -76.548500
1.115333 17.432880 0.958888 -172.745729 -35.424679 -173.419163 -11.939304 3.860587 -2.741033 -2.606821 38.562016 -9.875342 -2.462889 -0.312651 2.580320 3.408991 25.993047 2.624162 4.916400 -0.000000 -41.828600 8.909903 -0.722708 7.902254 3.726148 19.749216 -20.389041 4.076857 1.035568 1.016643 2.581559 21.110535 15.067402 6.919001 -0.000000 -75.970400
1.106861 17.442770 0.962540 -172.884170 -35.625225 -173.258234 -11.969048 3.922475 -2.761147 -2.844160 38.807970 -9.942964 -2.521752 -0.326551 2.155525 3.338180 25.597822 2.916598 4.948100 0.000000 -41.821300 8.903435 -0.737181 7.944036 3.487942 19.864091 -20.515745 4.041713 1.028954 1.080051 2.566456 20.663584 15.128348 6.774901 -0.000000 -75.413500
1.099981 17.451487 0.965091 -173.072656 -35.839803 -173.099622 -11.999291 3.985399 -2.773478 -3.093893 39.037577 -10.020026 -2.578677 -0.336526 1.830910 3.270014 25.218166 3.186298 4.969400 0.000000 -41.867200 8.894738 -0.763097 7.986531 3.238490 19.938275 -20.596471 4.005526 1.025208 1.110484 2.550967 20.242707 15.167412 6.633100 0.000000 -74.874100
1.095304 17.458728 0.966780 -173.306910 -36.071656 -172.946394 -12.026895 4.048179 -2.772328 -3.351965 39.204837 -10.103499 -2.627577 -0.340645 1.624278 3.211509 24.889845 3.413189 4.982500 -0.000000 -41.952100 8.885838 -0.796571 8.025004 2.981377 19.974045 -20.627260 3.968136 1.024000 1.115458 2.534584 19.835439 15.178971 6.487600 0.000000 -74.369201
1.093425 17.464399 0.967879 -173.577657 -36.336003 -172.798671 -12.046950 4.104508 -2.756409 -3.612796 39.263188 -10.190977 -2.662527 -0.338623 1.545611 3.168672 24.644687 3.580928 4.990900 -0.000000 -42.056500 8.879252 -0.833836 8.053116 2.721357 19.974222 -20.610051 3.927884 1.023638 1.101125 2.515936 19.425877 15.158799 6.332100 0.000000 -73.899600
1.094669 17.468486 0.968748 -173.875734 -36.644715 -172.658878 -12.057691 4.150380 -2.723344 -3.870003 39.181744 -10.281928 -2.679598 -0.330075 1.599721 3.145222 24.501405 3.677658 4.996500 0.000001 -42.158100 8.875203 -0.872238 8.067608 2.463115 19.943291 -20.546692 3.884054 1.023001 1.073927 2.493967 18.997664 15.106733 6.161600 -0.000000 -73.470500
1.099099 17.471083 0.969801 -174.190800 -37.009969 -172.529789 -12.058499 4.182262 -2.671437 -4.117370 38.939935 -10.373975 -2.676016 -0.315674 1.779874 3.143473 24.472288 3.698859 5.002100 0.000001 -42.242400 8.873404 -0.910084 8.066203 2.212758 19.883035 -20.442100 3.836131 1.020782 1.043649 2.467897 18.540964 15.021673 5.973000 0.000001 -73.079000
1.106635 17.472187 0.971496 -174.513529 -37.441202 -172.414622 -12.050081 4.197315 -2.601928 -4.348357 38.537282 -10.465971 -2.651744 -0.296609 2.073887 3.163255 24.555080 3.642194 5.006500 -0.000000 -42.295800 8.872754 -0.946562 8.047864 1.976962 19.795421 -20.303160 3.784041 1.015840 1.021134 2.437231 18.050073 14.901683 5.764800 -0.000000 -72.731800
1.116955 17.471696 0.974284 -174.834764 -37.943253 -172.315686 -12.034177 4.193938 -2.518465 -4.557702 37.989890 -10.557765 -2.608920 -0.274529 2.462942 3.202641 24.737461 3.508443 5.006199 -0.000000 -42.309099 8.871979 -0.981339 8.012159 1.762213 19.681694 -20.138971 3.728192 1.007338 1.018585 2.401874 17.525168 14.743943 5.537400 -0.000000 -72.432600
1.129314 17.469521 0.978663 -175.140809 -38.516090 -172.235270 -12.013452 4.171647 -2.426181 -4.742673 37.325313 -10.650980 -2.551058 -0.251437 2.922560 3.258662 25.000721 3.300125 4.996100 -0.000000 -42.275300 8.869547 -1.014247 7.959297 1.574309 19.543364 -19.960965 3.669827 0.995086 1.046857 2.362189 16.972237 14.545574 5.293400 0.000000 -72.185101
1.143054 17.465644 0.984894 -175.424426 -39.155147 -172.172167 -11.990052 4.131267 -2.330634 -4.903427 36.574699 -10.746497 -2.482059 -0.229440 3.422957 3.328367 25.327641 3.023706 4.972600 -0.000000 -42.190500 8.864868 -1.044713 7.889574 1.417529 19.381505 -19.780856 3.610149 0.979225 1.114218 2.318788 16.399937 14.305507 5.036600 0.000000 -71.988799
1.157224 17.460160 0.993331 -175.672692 -39.852393 -172.128347 -11.966360 4.074592 -2.237797 -5.041048 35.776124 -10.846366 -2.406594 -0.210225 3.937230 3.407963 25.695153 2.683864 4.929400 0.000000 -42.035400 8.857502 -1.072381 7.803760 1.294456 19.196909 -19.608015 3.550810 0.960297 1.225291 2.272467 15.819169 14.026036 4.772400 -0.000000 -71.842900
1.171099 17.453300 1.004063 -175.881319 -40.598112 -172.101390 -11.944041 4.004452 -2.150625 -5.159455 34.953975 -10.946303 -2.327174 -0.195742 4.432089 3.495539 26.094647 2.293783 4.868300 -0.000000 -41.816200 8.847709 -1.096853 7.702986 1.204869 18.990470 -19.449176 3.492979 0.939042 1.379576 2.224063 15.240390 13.711986 4.506500 -0.000000 -71.737900
1.184267 17.445406 1.017133 -176.049989 -41.382367 -172.092356 -11.924521 3.924179 -2.072021 -5.260987 34.135351 -11.040886 -2.246758 -0.187045 4.883293 3.588147 26.510618 1.863149 4.787700 -0.000000 -41.520000 8.835713 -1.118205 7.589086 1.146782 18.764444 -19.304200 3.437568 0.916222 1.571455 2.174207 14.670611 13.371815 4.243600 -0.000001 -71.667800
1.196303 17.436753 1.032251 -176.179053 -42.196576 -172.098492 -11.908215 3.837157 -2.004465 -5.351453 33.357402 -11.141683 -2.170784 -0.183801 5.290113 3.680238 26.910155 1.396291 4.679900 0.000000 -41.135400 8.822327 -1.137483 7.465369 1.117622 18.512830 -19.183504 3.384935 0.891720 1.806470 2.124149 14.124838 13.007665 3.989800 0.000000 -71.616300
1.207229 17.427801 1.049419 -176.273089 -43.033931 -172.124510 -11.896177 3.746592 -1.946610 -5.428624 32.617955 -11.226392 -2.097406 -0.186754 5.626709 3.771540 27.298128 0.915707 4.555900 0.000000 -40.692500 8.807399 -1.155363 7.334470 1.110649 18.248474 -19.067765 3.335413 0.867084 2.058498 2.073283 13.592571 12.636650 3.745000 -0.000001 -71.580400
1.217088 17.418801 1.067967 -176.339003 -43.889587 -172.165293 -11.887684 3.655622 -1.898788 -5.497995 31.942753 -11.308526 -2.031368 -0.194505 5.910095 3.855961 27.638638 0.424128 4.408400 -0.000001 -40.180900 8.792419 -1.173566 7.199628 1.121676 17.961912 -18.965657 3.288370 0.841540 2.335237 2.022714 13.087544 12.258668 3.513800 -0.000000 -71.543599
1.226391 17.410084 1.087503 -176.385894 -44.759689 -172.221100 -11.882157 3.566654 -1.860201 -5.557606 31.335832 -11.384317 -1.973295 -0.205691 6.145799 3.930079 27.916518 -0.060055 4.243599 -0.000000 -39.646599 8.778204 -1.192991 7.063936 1.144340 17.659976 -18.866187 3.243343 0.815734 2.621218 1.972096 12.603145 11.883039 3.295401 -0.000000 -71.503900
1.235616 17.401833 1.107312 -176.423324 -45.642173 -172.288214 -11.878363 3.481728 -1.829576 -5.608260 30.801042 -11.458241 -1.924933 -0.218643 6.352566 3.989761 28.109424 -0.530114 4.061700 -0.000000 -39.089400 8.766377 -1.214606 6.929101 1.173945 17.338192 -18.769098 3.199405 0.789166 2.916736 1.921734 12.142962 11.511382 3.090901 0.000000 -71.448500
1.245385 17.394234 1.126959 -176.454977 -46.534716 -172.369505 -11.875622 3.401589 -1.806943 -5.641853 30.335161 -11.527280 -1.886027 -0.231087 6.544414 4.031983 28.204766 -0.967279 3.871700 0.000000 -38.592700 8.757193 -1.238404 6.797229 1.207061 17.009652 -18.658413 3.156393 0.762972 3.200699 1.870489 11.690530 11.153709 2.896400 0.000000 -71.384500
1.256184 17.387355 1.145657 -176.493032 -47.434443 -172.455806 -11.872550 3.328028 -1.789547 -5.662794 29.934440 -11.599549 -1.857795 -0.241590 6.741076 4.053919 28.188048 -1.366554 3.676000 0.000000 -38.149600 8.752627 -1.264711 6.668534 1.239928 16.662349 -18.542463 3.113300 0.736133 3.484331 1.819396 11.258552 10.805249 2.714601 -0.000000 -71.302599
1.268421 17.381219 1.162886 -176.542322 -48.337799 -172.544298 -11.868615 3.261619 -1.776226 -5.668344 29.592445 -11.675613 -1.840024 -0.248728 6.954472 4.054007 28.053103 -1.719642 3.480400 -0.000000 -37.785400 8.753255 -1.293133 6.543176 1.270787 16.297082 -18.418102 3.069937 0.708864 3.763321 1.768456 10.845035 10.467876 2.544800 -0.000000 -71.205300
1.282450 17.375872 1.178341 -176.605242 -49.241122 -172.633308 -11.863441 3.202152 -1.765887 -5.655019 29.296963 -11.752461 -1.831081 -0.251538 7.187427 4.032629 27.806105 -2.014454 3.294700 -0.000001 -37.562700 8.759203 -1.322637 6.420768 1.299055 15.918629 -18.279916 3.026405 0.681792 4.028416 1.717362 10.443869 10.145665 2.385200 0.000000 -71.101801
